HIERARCHY
ROOT simHips
{
  OFFSET 1.33331 99.2249 -8.19265
  CHANNELS 6 Xposition Yposition Zposition Zrotation Xrotation Yrotation
  JOINT simSpine
  {
    OFFSET -0.000355721 21.3001 -0.016921
    CHANNELS 3 Zrotation Xrotation Yrotation
    JOINT simLeftArm
    {
      OFFSET 13.5181 21.3012 0
      CHANNELS 3 Zrotation Xrotation Yrotation
      JOINT simLeftForeArm
      {
        OFFSET 24.5783 0 0
        CHANNELS 3 Zrotation Xrotation Yrotation
        JOINT simLeftHand
        {
          OFFSET 24.5783 0 0
          CHANNELS 3 Zrotation Xrotation Yrotation
          End Site
          {
            OFFSET 7.32568 1.52588e-005 0.0169305
          }
        }
      }
    }
    JOINT simHead
    {
      OFFSET 0 27.4458 -0.00489235
      CHANNELS 3 Zrotation Xrotation Yrotation
      End Site
      {
        OFFSET 0 0 0
      }
    }
    JOINT simRightArm
    {
      OFFSET -13.5174 21.3012 0
      CHANNELS 3 Zrotation Xrotation Yrotation
      JOINT simRightForeArm
      {
        OFFSET -24.5783 0 0
        CHANNELS 3 Zrotation Xrotation Yrotation
        JOINT simRightHand
        {
          OFFSET -24.5783 0 0
          CHANNELS 3 Zrotation Xrotation Yrotation
          End Site
          {
            OFFSET -7.32568 1.52588e-005 0.0169305
          }
        }
      }
    }
  }
  JOINT simRightUpLeg
  {
    OFFSET -8.44614 -9.41038 0.835684
    CHANNELS 3 Zrotation Xrotation Yrotation
    JOINT simRightLeg
    {
      OFFSET 0 -40.9639 0
      CHANNELS 3 Zrotation Xrotation Yrotation
      JOINT simRightFoot
      {
        OFFSET 0 -40.9639 0
        CHANNELS 3 Zrotation Xrotation Yrotation
        End Site
        {
          OFFSET 0.50614 -9.67405 14.6709
        }
      }
    }
  }
  JOINT simLeftUpLeg
  {
    OFFSET 8.44614 -9.41038 0.835684
    CHANNELS 3 Zrotation Xrotation Yrotation
    JOINT simLeftLeg
    {
      OFFSET 0 -40.9639 0
      CHANNELS 3 Zrotation Xrotation Yrotation
      JOINT simLeftFoot
      {
        OFFSET 0 -40.9639 0
        CHANNELS 3 Zrotation Xrotation Yrotation
        End Site
        {
          OFFSET -0.50614 -9.67405 14.6709
        }
      }
    }
  }
}
MOTION
Frames:	21
Frame Time:	0.0333333
1.33331 99.2249 -8.19265 -1.49613 -0.321965 -7.9953 -2.06166 3.09117 -0.998097 -73.8065 -19.6056 -52.8687 -8.72771 1.44956 -8.5943 8.54307 -1.71674 -13.3521 0.217409 -6.14077 6.27647 88.4284 4.47816 2.43251 0.511798 0.13077 0.236464 -2.44801 11.7252 3.81826 -2.48412 -3.54396 0.880103 0.567362 5.63923 4.51087 3.28003 -1.89117 2.40052 3.3403 -4.54568 2.64493 -0.834511 12.605 1.97981 -1.10192 -7.41731 2.68083 
1.4548 99.1906 -8.20456 -1.5285 -0.164873 -8.14947 -2.22039 3.08285 -1.05097 -73.6116 -19.1745 -53.9162 -7.97733 1.27104 -7.8562 7.97468 -2.23006 -13.0885 0.23157 -6.03173 6.38629 88.434 4.46279 2.50867 0.498926 0.129302 0.230502 -2.37372 11.799 3.93398 -2.50592 -3.89582 0.748672 0.571663 5.92173 4.77858 3.32922 -1.98139 2.3687 3.37915 -4.94528 2.76457 -0.919353 13.0824 1.9841 -0.988773 -7.64405 2.75238 
1.54016 99.1491 -8.20051 -1.57874 -0.0623448 -8.35687 -2.42201 3.06921 -1.04532 -73.3986 -18.8284 -54.7856 -7.30836 1.12097 -7.19759 7.16077 -2.79249 -12.8763 0.284682 -5.92553 6.55908 88.4912 4.41414 2.57721 0.473545 0.12291 0.218765 -2.34367 11.8588 4.03031 -2.44941 -4.23571 0.685537 0.510471 6.31331 5.09302 3.3726 -2.14071 2.24273 3.49499 -5.27927 2.97515 -1.05751 13.6074 1.94401 -0.875093 -7.92049 2.80256 
1.59335 99.1117 -8.1845 -1.67217 -0.0149585 -8.62234 -2.67264 3.06199 -1.00623 -73.1436 -18.5887 -55.4417 -6.83267 1.0192 -6.72931 6.207 -3.37426 -12.6966 0.396905 -5.85311 6.72881 88.6039 4.35625 2.62806 0.443188 0.114975 0.204805 -2.36159 11.8937 4.10077 -2.29137 -4.4585 0.696241 0.381549 6.60995 5.44353 3.42186 -2.26636 2.05501 3.69169 -5.50474 3.19469 -1.22861 14.0992 1.91732 -0.776258 -8.20536 2.85707 
1.63202 99.0897 -8.16531 -1.80127 0.00767337 -8.91255 -2.9534 3.06889 -0.964627 -72.8511 -18.4592 -55.8636 -6.62146 0.975365 -6.5212 5.24337 -3.93249 -12.5318 0.552705 -5.82573 6.83898 88.7458 4.30213 2.66076 0.413955 0.107334 0.191275 -2.40539 11.8985 4.14489 -2.07625 -4.51204 0.727316 0.223322 6.64453 5.79295 3.48566 -2.27011 1.90385 3.91751 -5.62619 3.35219 -1.39395 14.4624 1.92366 -0.692608 -8.43444 2.98791 
1.67501 99.0852 -8.14949 -1.92549 0.0336523 -9.1668 -3.22761 3.09447 -0.950638 -72.5544 -18.4201 -56.0645 -6.68512 0.9886 -6.58394 4.42018 -4.40876 -12.3746 0.704944 -5.83438 6.8677 88.8724 4.25553 2.68154 0.389513 0.100929 0.180025 -2.44058 11.8734 4.16714 -1.90408 -4.4429 0.704409 0.109755 6.44088 6.09653 3.55168 -2.15691 1.87907 4.08584 -5.68339 3.42038 -1.51049 14.6566 1.94642 -0.616072 -8.56762 3.25361 
1.73324 99.0935 -8.13874 -2.00221 0.0685216 -9.32349 -3.45595 3.14036 -0.983324 -72.3002 -18.4346 -56.0909 -6.97453 1.04933 -6.86898 3.87751 -4.7313 -12.2335 0.795528 -5.8554 6.8384 88.9413 4.21352 2.69861 0.370505 0.095995 0.171258 -2.43686 11.8227 4.17386 -1.86123 -4.33051 0.596087 0.103619 6.13199 6.30979 3.5973 -1.98855 1.98402 4.12723 -5.71279 3.40447 -1.54783 14.6936 1.95538 -0.542228 -8.59726 3.6408 
1.80939 99.1088 -8.13199 -2.01431 0.0998033 -9.33967 -3.61226 3.20435 -1.06408 -72.1279 -18.4589 -56.01 -7.4027 1.1418 -7.29049 3.71267 -4.82764 -12.1306 0.783106 -5.85945 6.80591 88.933 4.17199 2.71614 0.355377 0.0920639 0.164323 -2.37967 11.7483 4.16756 -1.96278 -4.21158 0.42749 0.203142 5.82416 6.4048 3.61738 -1.82584 2.12884 4.02626 -5.71971 3.30515 -1.49904 14.6031 1.93252 -0.47856 -8.53995 4.03483 
1.89906 99.1248 -8.12778 -1.97524 0.117278 -9.20781 -3.69432 3.27912 -1.17668 -72.0543 -18.4549 -55.89 -7.87916 1.24849 -7.75953 3.95579 -4.64987 -12.0925 0.66303 -5.81904 6.82739 88.8614 4.13132 2.7305 0.341946 0.0885588 0.15811 -2.27486 11.6414 4.14179 -2.15314 -4.11255 0.236093 0.344579 5.59547 6.40218 3.62866 -1.713 2.20331 3.82721 -5.71291 3.12227 -1.38422 14.4493 1.88072 -0.438649 -8.43623 4.2686 
1.98925 99.1354 -8.12483 -1.91804 0.127083 -8.96981 -3.72334 3.35178 -1.29397 -72.072 -18.4049 -55.78 -8.34295 1.3564 -8.21615 4.56104 -4.20224 -12.1387 0.469929 -5.71396 6.93374 88.768 4.0999 2.73156 0.328905 0.0849062 0.152063 -2.14324 11.4754 4.07928 -2.35065 -4.05632 0.0299826 0.461619 5.4857 6.37421 3.645 -1.6719 2.16658 3.61352 -5.71481 2.89117 -1.24948 14.3159 1.81297 -0.425498 -8.3421 4.26388 
2.06154 99.1375 -8.12183 -1.87581 0.145567 -8.69907 -3.73407 3.40627 -1.38773 -72.1637 -18.3202 -55.6964 -8.77968 1.4615 -8.64587 5.41663 -3.55258 -12.2739 0.262818 -5.53533 7.11449 88.7041 4.09383 2.70832 0.316712 0.082186 0.146371 -2.00902 11.2083 3.95659 -2.49521 -4.03992 -0.197153 0.53312 5.46891 6.38709 3.6612 -1.69117 2.06397 3.45944 -5.7712 2.68278 -1.14504 14.2841 1.73623 -0.421619 -8.29832 4.13492 
2.10434 99.1336 -8.11787 -1.86323 0.18216 -8.44799 -3.76005 3.42763 -1.43868 -72.3236 -18.2414 -55.6235 -9.21499 1.56977 -9.07426 6.37031 -2.81375 -12.4879 0.100702 -5.28818 7.321 88.7091 4.13214 2.65555 0.307508 0.0801817 0.142326 -1.88769 10.7976 3.75553 -2.57215 -4.0682 -0.417078 0.578293 5.50957 6.42116 3.66496 -1.73584 1.9734 3.38661 -5.88406 2.55103 -1.09519 14.3437 1.64505 -0.402424 -8.298 4.09087 
2.12065 99.1314 -8.11232 -1.87445 0.232267 -8.22118 -3.82134 3.4067 -1.44172 -72.5711 -18.2328 -55.5226 -9.69683 1.69373 -9.5487 7.26406 -2.09603 -12.7659 0.0210241 -4.99353 7.48557 88.7943 4.22905 2.57843 0.304004 0.079139 0.140943 -1.77886 10.2253 3.47737 -2.60061 -4.07994 -0.558729 0.620385 5.4983 6.38069 3.65901 -1.75392 1.93941 3.36948 -6.01736 2.49549 -1.08596 14.4176 1.5301 -0.361435 -8.2982 4.21185 
2.12252 99.1402 -8.10355 -1.89527 0.28441 -8.00452 -3.91859 3.34286 -1.40532 -72.9477 -18.3689 -55.3448 -10.2752 1.84803 -10.1179 7.96987 -1.45122 -13.1042 0.0294746 -4.68756 7.54879 88.9396 4.38666 2.49313 0.309514 0.0799831 0.142967 -1.66764 9.52034 3.15249 -2.59938 -4.01448 -0.571428 0.65394 5.33175 6.21164 3.66266 -1.69653 1.93725 3.37475 -6.09694 2.48048 -1.08624 14.3912 1.3906 -0.3174 -8.2508 4.37555 
2.12135 99.1654 -8.08842 -1.91295 0.330202 -7.80175 -4.03597 3.24296 -1.34555 -73.4985 -18.7137 -55.0462 -10.9863 2.04616 -10.8175 8.41779 -0.837606 -13.5221 0.103038 -4.41457 7.48475 89.1018 4.59192 2.42158 0.326586 0.084579 0.15103 -1.5326 8.7639 2.83814 -2.57299 -3.82708 -0.482718 0.645495 4.9439 5.97508 3.69799 -1.54 1.90732 3.38261 -6.07075 2.47403 -1.06998 14.1933 1.24295 -0.296841 -8.13028 4.39788 
2.12354 99.2067 -8.06419 -1.91999 0.368889 -7.63578 -4.14949 3.11691 -1.27783 -74.2438 -19.3025 -54.5923 -11.8537 2.30067 -11.6713 8.61074 -0.128596 -14.0594 0.201378 -4.21042 7.31471 89.2301 4.81913 2.38423 0.357126 0.0925134 0.165093 -1.35645 8.07196 2.60335 -2.52033 -3.5337 -0.360912 0.564846 4.3557 5.77282 3.77681 -1.2911 1.81969 3.37921 -5.91958 2.46258 -1.02469 13.8078 1.1188 -0.315042 -7.93949 4.19473 
2.13106 99.2571 -8.03108 -1.91469 0.404496 -7.52405 -4.23551 2.97161 -1.21079 -75.1533 -20.1274 -53.9546 -12.8981 2.62565 -12.6988 8.62391 0.832996 -14.7614 0.28004 -4.08096 7.10304 89.2815 5.03722 2.39204 0.400181 0.103742 0.184965 -1.13495 7.55692 2.50551 -2.45383 -3.18141 -0.241034 0.427953 3.64861 5.63861 3.88715 -0.985863 1.69084 3.35432 -5.68548 2.44032 -0.950121 13.3005 1.05154 -0.365372 -7.70639 3.84995 
2.14274 99.306 -7.99256 -1.90033 0.440597 -7.45984 -4.2773 2.80709 -1.14427 -76.1375 -21.1317 -53.1029 -14.143 3.03973 -13.9228 8.58709 2.15766 -15.6582 0.301814 -3.98824 6.93528 89.2312 5.21859 2.4421 0.451584 0.117153 0.208673 -0.881612 7.28487 2.56804 -2.40641 -2.84729 -0.133432 0.305746 2.96257 5.54581 3.98891 -0.684342 1.5614 3.29709 -5.44484 2.39855 -0.857507 12.7877 1.05585 -0.422004 -7.47528 3.56985 
2.15565 99.3447 -7.95283 -1.88224 0.477829 -7.4161 -4.26845 2.61646 -1.07137 -77.0552 -22.2184 -51.9964 -15.6149 3.56749 -15.3696 8.65063 3.84771 -16.7517 0.245492 -3.85848 6.88555 89.0775 5.34576 2.51772 0.503286 0.130702 0.232511 -0.624154 7.24699 2.76861 -2.41258 -2.58655 -0.0690554 0.275623 2.41267 5.48197 4.03895 -0.440459 1.46993 3.2057 -5.26568 2.32802 -0.760628 12.3738 1.1163 -0.459839 -7.28445 3.52804 
2.16721 99.373 -7.9136 -1.86443 0.515761 -7.36306 -4.21402 2.38971 -0.98279 -77.739 -23.2721 -50.5839 -17.3351 4.23767 -17.0603 8.93948 5.78497 -18.012 0.11125 -3.61157 6.98574 88.8409 5.41399 2.59421 0.54506 0.141662 0.251812 -0.393957 7.35911 3.04218 -2.47726 -2.38729 -0.0769616 0.354451 1.99504 5.46009 4.02883 -0.260449 1.42189 3.08888 -5.15658 2.23075 -0.660259 12.072 1.19 -0.476735 -7.13814 3.72386 
2.17792 99.3978 -7.87275 -1.84692 0.555285 -7.28386 -4.13069 2.11889 -0.870967 -78.0287 -24.1868 -48.8154 -19.3082 5.07846 -18.9989 9.51038 7.77543 -19.3849 -0.0779843 -3.20017 7.20755 88.5598 5.42868 2.64627 0.568278 0.147715 0.262471 -0.215186 7.48939 3.29963 -2.57443 -2.20873 -0.126357 0.492125 1.62636 5.46246 3.98871 -0.106843 1.38661 2.9596 -5.07755 2.12992 -0.545128 11.8125 1.22154 -0.48921 -7.00701 4.00489 
